<mxfile host="app.diagrams.net" modified="2023-07-14T09:40:42.720Z" agent="Mozilla/5.0 (Macintosh; Intel Mac OS X 10_15_7) AppleWebKit/537.36 (KHTML, like Gecko) Chrome/114.0.0.0 Safari/537.36" etag="yptpGg8i_aOqSvj9re3x" version="21.6.2" type="github">
  <diagram id="R2lEEEUBdFMjLlhIrx00" name="Page-1">
    <mxGraphModel dx="1618" dy="766" grid="1" gridSize="10" guides="0" tooltips="1" connect="0" arrows="1" fold="1" page="1" pageScale="1" pageWidth="850" pageHeight="1100" math="0" shadow="0" extFonts="Permanent Marker^https://fonts.googleapis.com/css?family=Permanent+Marker">
      <root>
        <mxCell id="0" />
        <mxCell id="1" parent="0" />
        <mxCell id="C-vyLk0tnHw3VtMMgP7b-2" value="Companies_Details" style="shape=table;startSize=30;container=1;collapsible=1;childLayout=tableLayout;fixedRows=1;rowLines=0;fontStyle=1;align=center;resizeLast=1;labelBackgroundColor=none;fillColor=#1ba1e2;fontColor=#ffffff;strokeColor=#006EAF;" parent="1" vertex="1">
          <mxGeometry x="360" y="330" width="250" height="355" as="geometry" />
        </mxCell>
        <mxCell id="C-vyLk0tnHw3VtMMgP7b-3" value="" style="shape=partialRectangle;collapsible=0;dropTarget=0;pointerEvents=0;fillColor=none;points=[[0,0.5],[1,0.5]];portConstraint=eastwest;top=0;left=0;right=0;bottom=1;labelBackgroundColor=none;" parent="C-vyLk0tnHw3VtMMgP7b-2" vertex="1">
          <mxGeometry y="30" width="250" height="30" as="geometry" />
        </mxCell>
        <mxCell id="C-vyLk0tnHw3VtMMgP7b-4" value="PK" style="shape=partialRectangle;overflow=hidden;connectable=0;fillColor=none;top=0;left=0;bottom=0;right=0;fontStyle=1;labelBackgroundColor=none;" parent="C-vyLk0tnHw3VtMMgP7b-3" vertex="1">
          <mxGeometry width="30" height="30" as="geometry">
            <mxRectangle width="30" height="30" as="alternateBounds" />
          </mxGeometry>
        </mxCell>
        <mxCell id="C-vyLk0tnHw3VtMMgP7b-5" value="company_id NOT NULL " style="shape=partialRectangle;overflow=hidden;connectable=0;fillColor=none;top=0;left=0;bottom=0;right=0;align=left;spacingLeft=6;fontStyle=5;labelBackgroundColor=none;fontColor=#FF6666;" parent="C-vyLk0tnHw3VtMMgP7b-3" vertex="1">
          <mxGeometry x="30" width="220" height="30" as="geometry">
            <mxRectangle width="220" height="30" as="alternateBounds" />
          </mxGeometry>
        </mxCell>
        <mxCell id="C-vyLk0tnHw3VtMMgP7b-6" value="" style="shape=partialRectangle;collapsible=0;dropTarget=0;pointerEvents=0;fillColor=none;points=[[0,0.5],[1,0.5]];portConstraint=eastwest;top=0;left=0;right=0;bottom=0;labelBackgroundColor=none;" parent="C-vyLk0tnHw3VtMMgP7b-2" vertex="1">
          <mxGeometry y="60" width="250" height="30" as="geometry" />
        </mxCell>
        <mxCell id="C-vyLk0tnHw3VtMMgP7b-7" value="FK1" style="shape=partialRectangle;overflow=hidden;connectable=0;fillColor=none;top=0;left=0;bottom=0;right=0;labelBackgroundColor=none;" parent="C-vyLk0tnHw3VtMMgP7b-6" vertex="1">
          <mxGeometry width="30" height="30" as="geometry">
            <mxRectangle width="30" height="30" as="alternateBounds" />
          </mxGeometry>
        </mxCell>
        <mxCell id="C-vyLk0tnHw3VtMMgP7b-8" value="rating_class" style="shape=partialRectangle;overflow=hidden;connectable=0;fillColor=none;top=0;left=0;bottom=0;right=0;align=left;spacingLeft=6;labelBackgroundColor=none;" parent="C-vyLk0tnHw3VtMMgP7b-6" vertex="1">
          <mxGeometry x="30" width="220" height="30" as="geometry">
            <mxRectangle width="220" height="30" as="alternateBounds" />
          </mxGeometry>
        </mxCell>
        <mxCell id="C-vyLk0tnHw3VtMMgP7b-9" value="" style="shape=partialRectangle;collapsible=0;dropTarget=0;pointerEvents=0;fillColor=none;points=[[0,0.5],[1,0.5]];portConstraint=eastwest;top=0;left=0;right=0;bottom=0;verticalAlign=top;labelBackgroundColor=none;" parent="C-vyLk0tnHw3VtMMgP7b-2" vertex="1">
          <mxGeometry y="90" width="250" height="230" as="geometry" />
        </mxCell>
        <mxCell id="C-vyLk0tnHw3VtMMgP7b-10" value="" style="shape=partialRectangle;overflow=hidden;connectable=0;fillColor=none;top=0;left=0;bottom=0;right=0;labelBackgroundColor=none;" parent="C-vyLk0tnHw3VtMMgP7b-9" vertex="1">
          <mxGeometry width="30" height="230" as="geometry">
            <mxRectangle width="30" height="230" as="alternateBounds" />
          </mxGeometry>
        </mxCell>
        <mxCell id="C-vyLk0tnHw3VtMMgP7b-11" value="company_name&#xa;&#xa;number_of_reviews&#xa;&#xa;%_star1&#xa;&#xa;%_star2&#xa;&#xa;%_star3&#xa;&#xa;%_star4&#xa;&#xa;%_star5&#xa;&#xa;%_excelent" style="shape=partialRectangle;overflow=hidden;connectable=0;fillColor=none;top=0;left=0;bottom=0;right=0;align=left;spacingLeft=6;verticalAlign=top;labelBackgroundColor=none;" parent="C-vyLk0tnHw3VtMMgP7b-9" vertex="1">
          <mxGeometry x="30" width="220" height="230" as="geometry">
            <mxRectangle width="220" height="230" as="alternateBounds" />
          </mxGeometry>
        </mxCell>
        <mxCell id="C-vyLk0tnHw3VtMMgP7b-13" value="Reviews" style="shape=table;startSize=30;container=1;collapsible=1;childLayout=tableLayout;fixedRows=1;rowLines=0;fontStyle=1;align=center;resizeLast=1;labelBackgroundColor=none;fillColor=#1ba1e2;fontColor=#ffffff;strokeColor=#006EAF;" parent="1" vertex="1">
          <mxGeometry x="360" y="720" width="250" height="200" as="geometry" />
        </mxCell>
        <mxCell id="C-vyLk0tnHw3VtMMgP7b-14" value="" style="shape=partialRectangle;collapsible=0;dropTarget=0;pointerEvents=0;fillColor=none;points=[[0,0.5],[1,0.5]];portConstraint=eastwest;top=0;left=0;right=0;bottom=1;labelBackgroundColor=none;" parent="C-vyLk0tnHw3VtMMgP7b-13" vertex="1">
          <mxGeometry y="30" width="250" height="30" as="geometry" />
        </mxCell>
        <mxCell id="C-vyLk0tnHw3VtMMgP7b-15" value="PK" style="shape=partialRectangle;overflow=hidden;connectable=0;fillColor=none;top=0;left=0;bottom=0;right=0;fontStyle=1;labelBackgroundColor=none;" parent="C-vyLk0tnHw3VtMMgP7b-14" vertex="1">
          <mxGeometry width="30" height="30" as="geometry">
            <mxRectangle width="30" height="30" as="alternateBounds" />
          </mxGeometry>
        </mxCell>
        <mxCell id="C-vyLk0tnHw3VtMMgP7b-16" value="review_id NOT NULL " style="shape=partialRectangle;overflow=hidden;connectable=0;fillColor=none;top=0;left=0;bottom=0;right=0;align=left;spacingLeft=6;fontStyle=5;labelBackgroundColor=none;" parent="C-vyLk0tnHw3VtMMgP7b-14" vertex="1">
          <mxGeometry x="30" width="220" height="30" as="geometry">
            <mxRectangle width="220" height="30" as="alternateBounds" />
          </mxGeometry>
        </mxCell>
        <mxCell id="C-vyLk0tnHw3VtMMgP7b-17" value="" style="shape=partialRectangle;collapsible=0;dropTarget=0;pointerEvents=0;fillColor=none;points=[[0,0.5],[1,0.5]];portConstraint=eastwest;top=0;left=0;right=0;bottom=0;labelBackgroundColor=none;" parent="C-vyLk0tnHw3VtMMgP7b-13" vertex="1">
          <mxGeometry y="60" width="250" height="30" as="geometry" />
        </mxCell>
        <mxCell id="C-vyLk0tnHw3VtMMgP7b-18" value="FK1" style="shape=partialRectangle;overflow=hidden;connectable=0;fillColor=none;top=0;left=0;bottom=0;right=0;labelBackgroundColor=none;" parent="C-vyLk0tnHw3VtMMgP7b-17" vertex="1">
          <mxGeometry width="30" height="30" as="geometry">
            <mxRectangle width="30" height="30" as="alternateBounds" />
          </mxGeometry>
        </mxCell>
        <mxCell id="C-vyLk0tnHw3VtMMgP7b-19" value="company_id" style="shape=partialRectangle;overflow=hidden;connectable=0;fillColor=none;top=0;left=0;bottom=0;right=0;align=left;spacingLeft=6;fontStyle=1;labelBackgroundColor=none;fontColor=#FF6666;" parent="C-vyLk0tnHw3VtMMgP7b-17" vertex="1">
          <mxGeometry x="30" width="220" height="30" as="geometry">
            <mxRectangle width="220" height="30" as="alternateBounds" />
          </mxGeometry>
        </mxCell>
        <mxCell id="C-vyLk0tnHw3VtMMgP7b-20" value="" style="shape=partialRectangle;collapsible=0;dropTarget=0;pointerEvents=0;fillColor=none;points=[[0,0.5],[1,0.5]];portConstraint=eastwest;top=0;left=0;right=0;bottom=0;labelBackgroundColor=none;" parent="C-vyLk0tnHw3VtMMgP7b-13" vertex="1">
          <mxGeometry y="90" width="250" height="100" as="geometry" />
        </mxCell>
        <mxCell id="C-vyLk0tnHw3VtMMgP7b-21" value="" style="shape=partialRectangle;overflow=hidden;connectable=0;fillColor=none;top=0;left=0;bottom=0;right=0;labelBackgroundColor=none;" parent="C-vyLk0tnHw3VtMMgP7b-20" vertex="1">
          <mxGeometry width="30" height="100" as="geometry">
            <mxRectangle width="30" height="100" as="alternateBounds" />
          </mxGeometry>
        </mxCell>
        <mxCell id="C-vyLk0tnHw3VtMMgP7b-22" value="review_text&#xa;&#xa;reviewer_name&#xa;&#xa;experience_date" style="shape=partialRectangle;overflow=hidden;connectable=0;fillColor=none;top=0;left=0;bottom=0;right=0;align=left;spacingLeft=6;verticalAlign=top;labelBackgroundColor=none;" parent="C-vyLk0tnHw3VtMMgP7b-20" vertex="1">
          <mxGeometry x="30" width="220" height="100" as="geometry">
            <mxRectangle width="220" height="100" as="alternateBounds" />
          </mxGeometry>
        </mxCell>
        <mxCell id="SAXYhjvdJVbnnaso4vc4-98" style="edgeStyle=orthogonalEdgeStyle;rounded=0;orthogonalLoop=1;jettySize=auto;html=1;" edge="1" parent="1" source="C-vyLk0tnHw3VtMMgP7b-23" target="C-vyLk0tnHw3VtMMgP7b-17">
          <mxGeometry relative="1" as="geometry" />
        </mxCell>
        <mxCell id="C-vyLk0tnHw3VtMMgP7b-23" value="Companies_Main" style="shape=table;startSize=30;container=1;collapsible=1;childLayout=tableLayout;fixedRows=1;rowLines=0;fontStyle=1;align=center;resizeLast=1;labelBackgroundColor=none;fillColor=#f8cecc;strokeColor=#b85450;" parent="1" vertex="1">
          <mxGeometry x="150" y="90" width="250" height="180" as="geometry" />
        </mxCell>
        <mxCell id="C-vyLk0tnHw3VtMMgP7b-24" value="" style="shape=partialRectangle;collapsible=0;dropTarget=0;pointerEvents=0;fillColor=none;points=[[0,0.5],[1,0.5]];portConstraint=eastwest;top=0;left=0;right=0;bottom=1;labelBackgroundColor=none;" parent="C-vyLk0tnHw3VtMMgP7b-23" vertex="1">
          <mxGeometry y="30" width="250" height="30" as="geometry" />
        </mxCell>
        <mxCell id="C-vyLk0tnHw3VtMMgP7b-25" value="PK" style="shape=partialRectangle;overflow=hidden;connectable=0;fillColor=none;top=0;left=0;bottom=0;right=0;fontStyle=1;labelBackgroundColor=none;" parent="C-vyLk0tnHw3VtMMgP7b-24" vertex="1">
          <mxGeometry width="30" height="30" as="geometry">
            <mxRectangle width="30" height="30" as="alternateBounds" />
          </mxGeometry>
        </mxCell>
        <mxCell id="C-vyLk0tnHw3VtMMgP7b-26" value="company_id NOT NULL " style="shape=partialRectangle;overflow=hidden;connectable=0;fillColor=none;top=0;left=0;bottom=0;right=0;align=left;spacingLeft=6;fontStyle=5;labelBackgroundColor=none;" parent="C-vyLk0tnHw3VtMMgP7b-24" vertex="1">
          <mxGeometry x="30" width="220" height="30" as="geometry">
            <mxRectangle width="220" height="30" as="alternateBounds" />
          </mxGeometry>
        </mxCell>
        <mxCell id="C-vyLk0tnHw3VtMMgP7b-27" value="" style="shape=partialRectangle;collapsible=0;dropTarget=0;pointerEvents=0;fillColor=none;points=[[0,0.5],[1,0.5]];portConstraint=eastwest;top=0;left=0;right=0;bottom=0;labelBackgroundColor=none;" parent="C-vyLk0tnHw3VtMMgP7b-23" vertex="1">
          <mxGeometry y="60" width="250" height="100" as="geometry" />
        </mxCell>
        <mxCell id="C-vyLk0tnHw3VtMMgP7b-28" value="" style="shape=partialRectangle;overflow=hidden;connectable=0;fillColor=none;top=0;left=0;bottom=0;right=0;labelBackgroundColor=none;" parent="C-vyLk0tnHw3VtMMgP7b-27" vertex="1">
          <mxGeometry width="30" height="100" as="geometry">
            <mxRectangle width="30" height="100" as="alternateBounds" />
          </mxGeometry>
        </mxCell>
        <mxCell id="C-vyLk0tnHw3VtMMgP7b-29" value="company_name&#xa;&#xa;trustscore&#xa;&#xa;number_of_reviews&#xa;&#xa;domain" style="shape=partialRectangle;overflow=hidden;connectable=0;fillColor=none;top=0;left=0;bottom=0;right=0;align=left;spacingLeft=6;labelBackgroundColor=none;" parent="C-vyLk0tnHw3VtMMgP7b-27" vertex="1">
          <mxGeometry x="30" width="220" height="100" as="geometry">
            <mxRectangle width="220" height="100" as="alternateBounds" />
          </mxGeometry>
        </mxCell>
        <mxCell id="SAXYhjvdJVbnnaso4vc4-2" value="Main Web page" style="ellipse;whiteSpace=wrap;html=1;aspect=fixed;labelBackgroundColor=none;fillColor=#f8cecc;strokeColor=#b85450;" vertex="1" parent="1">
          <mxGeometry x="-230" y="120" width="80" height="80" as="geometry" />
        </mxCell>
        <mxCell id="SAXYhjvdJVbnnaso4vc4-3" value="" style="endArrow=classic;html=1;rounded=0;exitX=1.006;exitY=0.525;exitDx=0;exitDy=0;exitPerimeter=0;entryX=-0.006;entryY=0.11;entryDx=0;entryDy=0;entryPerimeter=0;labelBackgroundColor=none;fontColor=default;" edge="1" parent="1" source="SAXYhjvdJVbnnaso4vc4-2" target="C-vyLk0tnHw3VtMMgP7b-27">
          <mxGeometry width="50" height="50" relative="1" as="geometry">
            <mxPoint x="-20" y="380" as="sourcePoint" />
            <mxPoint x="30" y="330" as="targetPoint" />
          </mxGeometry>
        </mxCell>
        <mxCell id="SAXYhjvdJVbnnaso4vc4-4" value="csv raw data from main page" style="rounded=0;whiteSpace=wrap;html=1;labelBackgroundColor=none;" vertex="1" parent="1">
          <mxGeometry x="-250" y="220" width="120" height="60" as="geometry" />
        </mxCell>
        <mxCell id="SAXYhjvdJVbnnaso4vc4-5" value="Transform and generate key" style="rounded=0;whiteSpace=wrap;html=1;labelBackgroundColor=none;" vertex="1" parent="1">
          <mxGeometry x="-80" y="90" width="120" height="60" as="geometry" />
        </mxCell>
        <mxCell id="SAXYhjvdJVbnnaso4vc4-6" value="Company 1" style="ellipse;whiteSpace=wrap;html=1;aspect=fixed;labelBackgroundColor=none;fillColor=#dae8fc;strokeColor=#6c8ebf;" vertex="1" parent="1">
          <mxGeometry x="-220" y="370" width="80" height="80" as="geometry" />
        </mxCell>
        <mxCell id="SAXYhjvdJVbnnaso4vc4-7" value="company 2" style="ellipse;whiteSpace=wrap;html=1;aspect=fixed;labelBackgroundColor=none;fillColor=#dae8fc;strokeColor=#6c8ebf;" vertex="1" parent="1">
          <mxGeometry x="-220" y="570" width="80" height="80" as="geometry" />
        </mxCell>
        <mxCell id="SAXYhjvdJVbnnaso4vc4-9" value="company 4" style="ellipse;whiteSpace=wrap;html=1;aspect=fixed;labelBackgroundColor=none;fillColor=#dae8fc;strokeColor=#6c8ebf;" vertex="1" parent="1">
          <mxGeometry x="-220" y="970" width="80" height="80" as="geometry" />
        </mxCell>
        <mxCell id="SAXYhjvdJVbnnaso4vc4-10" value="company 5" style="ellipse;whiteSpace=wrap;html=1;aspect=fixed;labelBackgroundColor=none;fillColor=#dae8fc;strokeColor=#6c8ebf;" vertex="1" parent="1">
          <mxGeometry x="-220" y="1160" width="80" height="80" as="geometry" />
        </mxCell>
        <mxCell id="SAXYhjvdJVbnnaso4vc4-11" value="company 6" style="ellipse;whiteSpace=wrap;html=1;aspect=fixed;labelBackgroundColor=none;fillColor=#dae8fc;strokeColor=#6c8ebf;" vertex="1" parent="1">
          <mxGeometry x="-220" y="1360" width="80" height="80" as="geometry" />
        </mxCell>
        <mxCell id="SAXYhjvdJVbnnaso4vc4-12" value="&lt;b&gt;Details_Company 1&lt;/b&gt;" style="swimlane;fontStyle=0;childLayout=stackLayout;horizontal=1;startSize=30;horizontalStack=0;resizeParent=1;resizeParentMax=0;resizeLast=0;collapsible=1;marginBottom=0;whiteSpace=wrap;html=1;labelBackgroundColor=none;fillColor=#dae8fc;strokeColor=#6c8ebf;" vertex="1" parent="1">
          <mxGeometry x="-80" y="325" width="140" height="80" as="geometry" />
        </mxCell>
        <mxCell id="SAXYhjvdJVbnnaso4vc4-15" value="csv raw data from sub page" style="text;strokeColor=none;fillColor=none;align=left;verticalAlign=middle;spacingLeft=4;spacingRight=4;overflow=hidden;points=[[0,0.5],[1,0.5]];portConstraint=eastwest;rotatable=0;whiteSpace=wrap;html=1;labelBackgroundColor=none;" vertex="1" parent="SAXYhjvdJVbnnaso4vc4-12">
          <mxGeometry y="30" width="140" height="50" as="geometry" />
        </mxCell>
        <mxCell id="SAXYhjvdJVbnnaso4vc4-16" value="&lt;b&gt;Reviews_Company 1&amp;nbsp;&lt;/b&gt;" style="swimlane;fontStyle=0;childLayout=stackLayout;horizontal=1;startSize=30;horizontalStack=0;resizeParent=1;resizeParentMax=0;resizeLast=0;collapsible=1;marginBottom=0;whiteSpace=wrap;html=1;labelBackgroundColor=none;fillColor=#dae8fc;strokeColor=#6c8ebf;" vertex="1" parent="1">
          <mxGeometry x="-80" y="417.5" width="140" height="80" as="geometry" />
        </mxCell>
        <mxCell id="SAXYhjvdJVbnnaso4vc4-29" value="csv raw data from sub page" style="text;strokeColor=none;fillColor=none;align=left;verticalAlign=middle;spacingLeft=4;spacingRight=4;overflow=hidden;points=[[0,0.5],[1,0.5]];portConstraint=eastwest;rotatable=0;whiteSpace=wrap;html=1;labelBackgroundColor=none;" vertex="1" parent="SAXYhjvdJVbnnaso4vc4-16">
          <mxGeometry y="30" width="140" height="50" as="geometry" />
        </mxCell>
        <mxCell id="SAXYhjvdJVbnnaso4vc4-30" value="&lt;b&gt;Details_Company 2&lt;/b&gt;" style="swimlane;fontStyle=0;childLayout=stackLayout;horizontal=1;startSize=30;horizontalStack=0;resizeParent=1;resizeParentMax=0;resizeLast=0;collapsible=1;marginBottom=0;whiteSpace=wrap;html=1;labelBackgroundColor=none;fillColor=#dae8fc;strokeColor=#6c8ebf;" vertex="1" parent="1">
          <mxGeometry x="-80" y="520" width="140" height="80" as="geometry" />
        </mxCell>
        <mxCell id="SAXYhjvdJVbnnaso4vc4-31" value="csv raw data from sub page" style="text;strokeColor=none;fillColor=none;align=left;verticalAlign=middle;spacingLeft=4;spacingRight=4;overflow=hidden;points=[[0,0.5],[1,0.5]];portConstraint=eastwest;rotatable=0;whiteSpace=wrap;html=1;labelBackgroundColor=none;" vertex="1" parent="SAXYhjvdJVbnnaso4vc4-30">
          <mxGeometry y="30" width="140" height="50" as="geometry" />
        </mxCell>
        <mxCell id="SAXYhjvdJVbnnaso4vc4-32" value="&lt;b&gt;Reviews_Company 2&amp;nbsp;&lt;/b&gt;" style="swimlane;fontStyle=0;childLayout=stackLayout;horizontal=1;startSize=30;horizontalStack=0;resizeParent=1;resizeParentMax=0;resizeLast=0;collapsible=1;marginBottom=0;whiteSpace=wrap;html=1;labelBackgroundColor=none;fillColor=#dae8fc;strokeColor=#6c8ebf;" vertex="1" parent="1">
          <mxGeometry x="-80" y="612.5" width="140" height="80" as="geometry" />
        </mxCell>
        <mxCell id="SAXYhjvdJVbnnaso4vc4-33" value="csv raw data from sub page" style="text;strokeColor=none;fillColor=none;align=left;verticalAlign=middle;spacingLeft=4;spacingRight=4;overflow=hidden;points=[[0,0.5],[1,0.5]];portConstraint=eastwest;rotatable=0;whiteSpace=wrap;html=1;labelBackgroundColor=none;" vertex="1" parent="SAXYhjvdJVbnnaso4vc4-32">
          <mxGeometry y="30" width="140" height="50" as="geometry" />
        </mxCell>
        <mxCell id="SAXYhjvdJVbnnaso4vc4-34" value="Details_Company 3" style="swimlane;fontStyle=1;childLayout=stackLayout;horizontal=1;startSize=30;horizontalStack=0;resizeParent=1;resizeParentMax=0;resizeLast=0;collapsible=1;marginBottom=0;whiteSpace=wrap;html=1;labelBackgroundColor=none;fillColor=#dae8fc;strokeColor=#6c8ebf;" vertex="1" parent="1">
          <mxGeometry x="-80" y="717.5" width="140" height="80" as="geometry" />
        </mxCell>
        <mxCell id="SAXYhjvdJVbnnaso4vc4-35" value="csv raw data from sub page" style="text;strokeColor=none;fillColor=none;align=left;verticalAlign=middle;spacingLeft=4;spacingRight=4;overflow=hidden;points=[[0,0.5],[1,0.5]];portConstraint=eastwest;rotatable=0;whiteSpace=wrap;html=1;labelBackgroundColor=none;" vertex="1" parent="SAXYhjvdJVbnnaso4vc4-34">
          <mxGeometry y="30" width="140" height="50" as="geometry" />
        </mxCell>
        <mxCell id="SAXYhjvdJVbnnaso4vc4-36" value="Reviews_Company 3&amp;nbsp;" style="swimlane;fontStyle=1;childLayout=stackLayout;horizontal=1;startSize=30;horizontalStack=0;resizeParent=1;resizeParentMax=0;resizeLast=0;collapsible=1;marginBottom=0;whiteSpace=wrap;html=1;labelBackgroundColor=none;fillColor=#dae8fc;strokeColor=#6c8ebf;" vertex="1" parent="1">
          <mxGeometry x="-80" y="810" width="140" height="80" as="geometry" />
        </mxCell>
        <mxCell id="SAXYhjvdJVbnnaso4vc4-37" value="csv raw data from sub page" style="text;strokeColor=none;fillColor=none;align=left;verticalAlign=middle;spacingLeft=4;spacingRight=4;overflow=hidden;points=[[0,0.5],[1,0.5]];portConstraint=eastwest;rotatable=0;whiteSpace=wrap;html=1;labelBackgroundColor=none;" vertex="1" parent="SAXYhjvdJVbnnaso4vc4-36">
          <mxGeometry y="30" width="140" height="50" as="geometry" />
        </mxCell>
        <mxCell id="SAXYhjvdJVbnnaso4vc4-38" value="Details_Company 4" style="swimlane;fontStyle=1;childLayout=stackLayout;horizontal=1;startSize=30;horizontalStack=0;resizeParent=1;resizeParentMax=0;resizeLast=0;collapsible=1;marginBottom=0;whiteSpace=wrap;html=1;labelBackgroundColor=none;fillColor=#dae8fc;strokeColor=#6c8ebf;" vertex="1" parent="1">
          <mxGeometry x="-80" y="920" width="140" height="80" as="geometry" />
        </mxCell>
        <mxCell id="SAXYhjvdJVbnnaso4vc4-39" value="csv raw data from sub page" style="text;strokeColor=none;fillColor=none;align=left;verticalAlign=middle;spacingLeft=4;spacingRight=4;overflow=hidden;points=[[0,0.5],[1,0.5]];portConstraint=eastwest;rotatable=0;whiteSpace=wrap;html=1;labelBackgroundColor=none;" vertex="1" parent="SAXYhjvdJVbnnaso4vc4-38">
          <mxGeometry y="30" width="140" height="50" as="geometry" />
        </mxCell>
        <mxCell id="SAXYhjvdJVbnnaso4vc4-40" value="Reviews_Company 4&amp;nbsp;" style="swimlane;fontStyle=1;childLayout=stackLayout;horizontal=1;startSize=30;horizontalStack=0;resizeParent=1;resizeParentMax=0;resizeLast=0;collapsible=1;marginBottom=0;whiteSpace=wrap;html=1;labelBackgroundColor=none;fillColor=#dae8fc;strokeColor=#6c8ebf;" vertex="1" parent="1">
          <mxGeometry x="-80" y="1012.5" width="140" height="80" as="geometry" />
        </mxCell>
        <mxCell id="SAXYhjvdJVbnnaso4vc4-41" value="csv raw data from sub page" style="text;strokeColor=none;fillColor=none;align=left;verticalAlign=middle;spacingLeft=4;spacingRight=4;overflow=hidden;points=[[0,0.5],[1,0.5]];portConstraint=eastwest;rotatable=0;whiteSpace=wrap;html=1;labelBackgroundColor=none;" vertex="1" parent="SAXYhjvdJVbnnaso4vc4-40">
          <mxGeometry y="30" width="140" height="50" as="geometry" />
        </mxCell>
        <mxCell id="SAXYhjvdJVbnnaso4vc4-42" value="Details_Company 5" style="swimlane;fontStyle=1;childLayout=stackLayout;horizontal=1;startSize=30;horizontalStack=0;resizeParent=1;resizeParentMax=0;resizeLast=0;collapsible=1;marginBottom=0;whiteSpace=wrap;html=1;labelBackgroundColor=none;fillColor=#dae8fc;strokeColor=#6c8ebf;" vertex="1" parent="1">
          <mxGeometry x="-80" y="1120" width="140" height="80" as="geometry" />
        </mxCell>
        <mxCell id="SAXYhjvdJVbnnaso4vc4-43" value="csv raw data from sub page" style="text;strokeColor=none;fillColor=none;align=left;verticalAlign=middle;spacingLeft=4;spacingRight=4;overflow=hidden;points=[[0,0.5],[1,0.5]];portConstraint=eastwest;rotatable=0;whiteSpace=wrap;html=1;labelBackgroundColor=none;" vertex="1" parent="SAXYhjvdJVbnnaso4vc4-42">
          <mxGeometry y="30" width="140" height="50" as="geometry" />
        </mxCell>
        <mxCell id="SAXYhjvdJVbnnaso4vc4-44" value="Reviews_Company 5" style="swimlane;fontStyle=1;childLayout=stackLayout;horizontal=1;startSize=30;horizontalStack=0;resizeParent=1;resizeParentMax=0;resizeLast=0;collapsible=1;marginBottom=0;whiteSpace=wrap;html=1;labelBackgroundColor=none;fillColor=#dae8fc;strokeColor=#6c8ebf;" vertex="1" parent="1">
          <mxGeometry x="-80" y="1212.5" width="140" height="80" as="geometry" />
        </mxCell>
        <mxCell id="SAXYhjvdJVbnnaso4vc4-45" value="csv raw data from sub page" style="text;strokeColor=none;fillColor=none;align=left;verticalAlign=middle;spacingLeft=4;spacingRight=4;overflow=hidden;points=[[0,0.5],[1,0.5]];portConstraint=eastwest;rotatable=0;whiteSpace=wrap;html=1;labelBackgroundColor=none;" vertex="1" parent="SAXYhjvdJVbnnaso4vc4-44">
          <mxGeometry y="30" width="140" height="50" as="geometry" />
        </mxCell>
        <mxCell id="SAXYhjvdJVbnnaso4vc4-46" value="Details_Company 6" style="swimlane;fontStyle=1;childLayout=stackLayout;horizontal=1;startSize=30;horizontalStack=0;resizeParent=1;resizeParentMax=0;resizeLast=0;collapsible=1;marginBottom=0;whiteSpace=wrap;html=1;labelBackgroundColor=none;fillColor=#dae8fc;strokeColor=#6c8ebf;" vertex="1" parent="1">
          <mxGeometry x="-80" y="1320" width="140" height="80" as="geometry" />
        </mxCell>
        <mxCell id="SAXYhjvdJVbnnaso4vc4-47" value="csv raw data from sub page" style="text;strokeColor=none;fillColor=none;align=left;verticalAlign=middle;spacingLeft=4;spacingRight=4;overflow=hidden;points=[[0,0.5],[1,0.5]];portConstraint=eastwest;rotatable=0;whiteSpace=wrap;html=1;labelBackgroundColor=none;" vertex="1" parent="SAXYhjvdJVbnnaso4vc4-46">
          <mxGeometry y="30" width="140" height="50" as="geometry" />
        </mxCell>
        <mxCell id="SAXYhjvdJVbnnaso4vc4-48" value="Reviews_Company 6" style="swimlane;fontStyle=1;childLayout=stackLayout;horizontal=1;startSize=30;horizontalStack=0;resizeParent=1;resizeParentMax=0;resizeLast=0;collapsible=1;marginBottom=0;whiteSpace=wrap;html=1;labelBackgroundColor=none;fillColor=#dae8fc;strokeColor=#6c8ebf;" vertex="1" parent="1">
          <mxGeometry x="-80" y="1412.5" width="140" height="80" as="geometry" />
        </mxCell>
        <mxCell id="SAXYhjvdJVbnnaso4vc4-49" value="csv raw data from sub page" style="text;strokeColor=none;fillColor=none;align=left;verticalAlign=middle;spacingLeft=4;spacingRight=4;overflow=hidden;points=[[0,0.5],[1,0.5]];portConstraint=eastwest;rotatable=0;whiteSpace=wrap;html=1;labelBackgroundColor=none;" vertex="1" parent="SAXYhjvdJVbnnaso4vc4-48">
          <mxGeometry y="30" width="140" height="50" as="geometry" />
        </mxCell>
        <mxCell id="SAXYhjvdJVbnnaso4vc4-51" value="" style="endArrow=classic;html=1;rounded=0;entryX=-0.025;entryY=-0.03;entryDx=0;entryDy=0;entryPerimeter=0;labelBackgroundColor=none;fontColor=default;" edge="1" parent="1" target="SAXYhjvdJVbnnaso4vc4-29">
          <mxGeometry width="50" height="50" relative="1" as="geometry">
            <mxPoint x="-140" y="410" as="sourcePoint" />
            <mxPoint x="-90" y="360" as="targetPoint" />
          </mxGeometry>
        </mxCell>
        <mxCell id="SAXYhjvdJVbnnaso4vc4-52" value="" style="endArrow=classic;html=1;rounded=0;entryX=-0.025;entryY=0.14;entryDx=0;entryDy=0;entryPerimeter=0;labelBackgroundColor=none;fontColor=default;" edge="1" parent="1" target="SAXYhjvdJVbnnaso4vc4-15">
          <mxGeometry width="50" height="50" relative="1" as="geometry">
            <mxPoint x="-140" y="400" as="sourcePoint" />
            <mxPoint x="-90" y="350" as="targetPoint" />
          </mxGeometry>
        </mxCell>
        <mxCell id="SAXYhjvdJVbnnaso4vc4-60" value="company 2" style="ellipse;whiteSpace=wrap;html=1;aspect=fixed;labelBackgroundColor=none;fillColor=#dae8fc;strokeColor=#6c8ebf;" vertex="1" parent="1">
          <mxGeometry x="-220" y="760" width="80" height="80" as="geometry" />
        </mxCell>
        <mxCell id="SAXYhjvdJVbnnaso4vc4-70" value="" style="endArrow=classic;html=1;rounded=0;entryX=-0.025;entryY=-0.03;entryDx=0;entryDy=0;entryPerimeter=0;labelBackgroundColor=none;fontColor=default;" edge="1" parent="1">
          <mxGeometry width="50" height="50" relative="1" as="geometry">
            <mxPoint x="-140" y="610" as="sourcePoint" />
            <mxPoint x="-83" y="646" as="targetPoint" />
          </mxGeometry>
        </mxCell>
        <mxCell id="SAXYhjvdJVbnnaso4vc4-71" value="" style="endArrow=classic;html=1;rounded=0;entryX=-0.025;entryY=0.14;entryDx=0;entryDy=0;entryPerimeter=0;labelBackgroundColor=none;fontColor=default;" edge="1" parent="1">
          <mxGeometry width="50" height="50" relative="1" as="geometry">
            <mxPoint x="-140" y="600" as="sourcePoint" />
            <mxPoint x="-83" y="562" as="targetPoint" />
          </mxGeometry>
        </mxCell>
        <mxCell id="SAXYhjvdJVbnnaso4vc4-72" value="" style="endArrow=classic;html=1;rounded=0;labelBackgroundColor=none;fontColor=default;" edge="1" parent="1">
          <mxGeometry width="50" height="50" relative="1" as="geometry">
            <mxPoint x="-140" y="788" as="sourcePoint" />
            <mxPoint x="-83" y="740" as="targetPoint" />
          </mxGeometry>
        </mxCell>
        <mxCell id="SAXYhjvdJVbnnaso4vc4-73" value="" style="endArrow=classic;html=1;rounded=0;entryX=-0.025;entryY=-0.03;entryDx=0;entryDy=0;entryPerimeter=0;labelBackgroundColor=none;fontColor=default;" edge="1" parent="1">
          <mxGeometry width="50" height="50" relative="1" as="geometry">
            <mxPoint x="-140" y="797.5" as="sourcePoint" />
            <mxPoint x="-83" y="833.5" as="targetPoint" />
          </mxGeometry>
        </mxCell>
        <mxCell id="SAXYhjvdJVbnnaso4vc4-74" value="" style="endArrow=classic;html=1;rounded=0;labelBackgroundColor=none;fontColor=default;entryX=-0.032;entryY=0.02;entryDx=0;entryDy=0;entryPerimeter=0;" edge="1" parent="1" target="SAXYhjvdJVbnnaso4vc4-39">
          <mxGeometry width="50" height="50" relative="1" as="geometry">
            <mxPoint x="-140" y="1000" as="sourcePoint" />
            <mxPoint x="-93" y="960" as="targetPoint" />
          </mxGeometry>
        </mxCell>
        <mxCell id="SAXYhjvdJVbnnaso4vc4-75" value="" style="endArrow=classic;html=1;rounded=0;entryX=-0.025;entryY=-0.03;entryDx=0;entryDy=0;entryPerimeter=0;labelBackgroundColor=none;fontColor=default;exitX=1.019;exitY=0.6;exitDx=0;exitDy=0;exitPerimeter=0;" edge="1" parent="1" source="SAXYhjvdJVbnnaso4vc4-9">
          <mxGeometry width="50" height="50" relative="1" as="geometry">
            <mxPoint x="-140" y="1000" as="sourcePoint" />
            <mxPoint x="-83" y="1036" as="targetPoint" />
          </mxGeometry>
        </mxCell>
        <mxCell id="SAXYhjvdJVbnnaso4vc4-76" value="" style="endArrow=classic;html=1;rounded=0;labelBackgroundColor=none;fontColor=default;entryX=-0.032;entryY=0.02;entryDx=0;entryDy=0;entryPerimeter=0;" edge="1" parent="1">
          <mxGeometry width="50" height="50" relative="1" as="geometry">
            <mxPoint x="-140" y="1189" as="sourcePoint" />
            <mxPoint x="-84" y="1140" as="targetPoint" />
          </mxGeometry>
        </mxCell>
        <mxCell id="SAXYhjvdJVbnnaso4vc4-77" value="" style="endArrow=classic;html=1;rounded=0;labelBackgroundColor=none;fontColor=default;entryX=-0.032;entryY=0.02;entryDx=0;entryDy=0;entryPerimeter=0;" edge="1" parent="1">
          <mxGeometry width="50" height="50" relative="1" as="geometry">
            <mxPoint x="-140" y="1389" as="sourcePoint" />
            <mxPoint x="-84" y="1340" as="targetPoint" />
          </mxGeometry>
        </mxCell>
        <mxCell id="SAXYhjvdJVbnnaso4vc4-78" value="" style="endArrow=classic;html=1;rounded=0;entryX=-0.025;entryY=-0.03;entryDx=0;entryDy=0;entryPerimeter=0;labelBackgroundColor=none;fontColor=default;exitX=1.019;exitY=0.6;exitDx=0;exitDy=0;exitPerimeter=0;" edge="1" parent="1">
          <mxGeometry width="50" height="50" relative="1" as="geometry">
            <mxPoint x="-140" y="1210" as="sourcePoint" />
            <mxPoint x="-85" y="1228" as="targetPoint" />
          </mxGeometry>
        </mxCell>
        <mxCell id="SAXYhjvdJVbnnaso4vc4-80" value="" style="endArrow=classic;html=1;rounded=0;entryX=-0.025;entryY=-0.03;entryDx=0;entryDy=0;entryPerimeter=0;labelBackgroundColor=none;fontColor=default;exitX=1.019;exitY=0.6;exitDx=0;exitDy=0;exitPerimeter=0;" edge="1" parent="1">
          <mxGeometry width="50" height="50" relative="1" as="geometry">
            <mxPoint x="-140" y="1410" as="sourcePoint" />
            <mxPoint x="-85" y="1428" as="targetPoint" />
          </mxGeometry>
        </mxCell>
        <mxCell id="SAXYhjvdJVbnnaso4vc4-95" value="" style="strokeWidth=2;html=1;shape=mxgraph.flowchart.annotation_2;align=left;labelPosition=right;pointerEvents=1;" vertex="1" parent="1">
          <mxGeometry x="180" y="480" width="70" height="380" as="geometry" />
        </mxCell>
        <mxCell id="SAXYhjvdJVbnnaso4vc4-97" style="edgeStyle=orthogonalEdgeStyle;rounded=0;orthogonalLoop=1;jettySize=auto;html=1;entryX=0.534;entryY=-0.006;entryDx=0;entryDy=0;entryPerimeter=0;" edge="1" parent="1" source="C-vyLk0tnHw3VtMMgP7b-27" target="C-vyLk0tnHw3VtMMgP7b-2">
          <mxGeometry relative="1" as="geometry" />
        </mxCell>
      </root>
    </mxGraphModel>
  </diagram>
</mxfile>
